# xmcd
#
# Track frame offsets:
# 150
# 13883
# 27403
# 39429
# 53128
# 63891
# 76411
# 90111
# 102704
# 115973
# 127531
# 141920
# 151727
# 164676
# 175636
# 186185
# 198798
# 210047
# 220443
# 232724
# 243423
# 254867
# 267353
# 276892
# 286252
#
# Disc length: 3954 seconds
#
# Revision: 0
# Processed by: cddbd v1.5.2PL0 Copyright (c) Steve Scherf et al.
# Submitted via: Audion 3.0.2 (http://www.panic.com/audion/)
#
DISCID=570f7019
DTITLE=T-Bone Walker - Stormy Monday
DYEAR=1900
DGENRE=
TTITLE0=Call It Stormy Monday
TTITLE1=T-Bone Shuffle
TTITLE2=Bobby Sox Blues
TTITLE3=I'm Waiting For Your Call
TTITLE4=Lonesome Woman Blues
TTITLE5=West Side Baby
TTITLE6=Description Blues
TTITLE7=Inspiration Blues
TTITLE8=I'm Still In Love With You
TTITLE9=The Hustle is On
TTITLE10=Cold, Cold Feeling
TTITLE11=Party Girl
TTITLE12=Blue Mood
TTITLE13=Vida Lee
TTITLE14=Pony Tail
TTITLE15=I Want A Little Girl
TTITLE16=Strollin' With Bone
TTITLE17=I Walked Away
TTITLE18=I Get So Weary
TTITLE19=News For My Baby
TTITLE20=Wanderin' Heart
TTITLE21=Bye Bye Baby
TTITLE22=I'll Understand
TTITLE23=Teenage Baby
TTITLE24=I'll Always Be In Love With You
EXTD=
EXTT0=
EXTT1=
EXTT2=
EXTT3=
EXTT4=
EXTT5=
EXTT6=
EXTT7=
EXTT8=
EXTT9=
EXTT10=
EXTT11=
EXTT12=
EXTT13=
EXTT14=
EXTT15=
EXTT16=
EXTT17=
EXTT18=
EXTT19=
EXTT20=
EXTT21=
EXTT22=
EXTT23=
EXTT24=
PLAYORDER=
